HIERARCHY
ROOT Hips
{
	OFFSET 0.000000 83.214638 0.000000
	CHANNELS 6 Xposition Yposition Zposition Xrotation Yrotation Zrotation
	JOINT Pelvis
	{
		OFFSET 0.000000 0.000000 0.000000
		CHANNELS 3 Xrotation Yrotation Zrotation
		JOINT LeftUpLeg
		{
			OFFSET 8.479700 -4.795502 -0.379100
			CHANNELS 3 Xrotation Yrotation Zrotation
			JOINT LeftLeg
			{
				OFFSET 0.024144 -32.555107 0.112900
				CHANNELS 3 Xrotation Yrotation Zrotation
				JOINT LeftFoot
				{
					OFFSET -0.024144 -32.638630 -3.012600
					CHANNELS 3 Xrotation Yrotation Zrotation
					JOINT LeftToeBase
					{
						OFFSET 0.970200 -13.225400 11.864200
						CHANNELS 3 Xrotation Yrotation Zrotation
						End Site
						{
							OFFSET 0.000000 12.319262 0.000000
						}
					}
					JOINT LFootTongue
					{
						OFFSET 1.142400 -1.059800 6.665200
						CHANNELS 3 Xrotation Yrotation Zrotation
						End Site
						{
							OFFSET 0.000000 12.319262 0.000000
						}
					}
				}
				JOINT LeftPantLeg
				{
					OFFSET 0.918482 -16.533964 -2.284700
					CHANNELS 3 Xrotation Yrotation Zrotation
					End Site
					{
						OFFSET 0.350399 24.744368 0.000000
					}
				}
			}
		}
		JOINT RightUpLeg
		{
			OFFSET -8.479700 -4.795502 -0.379100
			CHANNELS 3 Xrotation Yrotation Zrotation
			JOINT RightLeg
			{
				OFFSET -0.023144 -32.555092 0.112900
				CHANNELS 3 Xrotation Yrotation Zrotation
				JOINT RightFoot
				{
					OFFSET 0.023144 -32.638641 -3.012700
					CHANNELS 3 Xrotation Yrotation Zrotation
					JOINT RightToeBase
					{
						OFFSET -0.970200 -13.225400 11.864200
						CHANNELS 3 Xrotation Yrotation Zrotation
						End Site
						{
							OFFSET 0.000000 12.319244 0.000000
						}
					}
					JOINT RFootTongue
					{
						OFFSET -1.142200 -1.059800 6.665200
						CHANNELS 3 Xrotation Yrotation Zrotation
						End Site
						{
							OFFSET 0.000000 12.319243 0.000000
						}
					}
				}
				JOINT RightPantLeg
				{
					OFFSET -0.919482 -16.533978 -2.284800
					CHANNELS 3 Xrotation Yrotation Zrotation
					End Site
					{
						OFFSET -0.350400 24.744419 0.000000
					}
				}
			}
		}
	}
	JOINT Spine
	{
		OFFSET 0.000000 7.722000 1.166200
		CHANNELS 3 Xrotation Yrotation Zrotation
		JOINT Spine1
		{
			OFFSET 0.000000 12.024101 0.248800
			CHANNELS 3 Xrotation Yrotation Zrotation
			JOINT Spine2
			{
				OFFSET 0.000000 11.502998 -0.491200
				CHANNELS 3 Xrotation Yrotation Zrotation
				JOINT Neck
				{
					OFFSET 0.000000 18.430702 -3.123100
					CHANNELS 3 Xrotation Yrotation Zrotation
					JOINT Head
					{
						OFFSET 0.000000 9.051102 1.034000
						CHANNELS 3 Xrotation Yrotation Zrotation
						JOINT HairB
						{
							OFFSET 0.208400 24.786102 24.822300
							CHANNELS 3 Xrotation Yrotation Zrotation
							End Site
							{
								OFFSET 0.000000 32.263779 0.000000
							}
						}
						JOINT HairA
						{
							OFFSET -7.081100 24.428299 23.196600
							CHANNELS 3 Xrotation Yrotation Zrotation
							End Site
							{
								OFFSET 0.000000 32.263779 0.000000
							}
						}
						JOINT Hat
						{
							OFFSET 16.728800 15.048294 -15.439601
							CHANNELS 3 Xrotation Yrotation Zrotation
							End Site
							{
								OFFSET 0.000000 32.263779 0.000000
							}
						}
					}
				}
				JOINT LeftShoulder
				{
					OFFSET 6.197800 13.665199 -4.064700
					CHANNELS 3 Xrotation Yrotation Zrotation
					JOINT LeftArm
					{
						OFFSET 7.778100 -0.187103 -1.709300
						CHANNELS 3 Xrotation Yrotation Zrotation
						JOINT LeftForeArm
						{
							OFFSET 22.049376 0.000000 0.000000
							CHANNELS 3 Xrotation Yrotation Zrotation
							JOINT LeftHand
							{
								OFFSET 23.009392 0.000000 0.000000
								CHANNELS 3 Xrotation Yrotation Zrotation
								JOINT LeftHandThumb1
								{
									OFFSET 3.507191 -2.063065 3.133727
									CHANNELS 3 Xrotation Yrotation Zrotation
									JOINT LeftHandThumb2
									{
										OFFSET 3.101337 -1.790558 1.790558
										CHANNELS 3 Xrotation Yrotation Zrotation
										JOINT LeftHandThumb3
										{
											OFFSET 3.058640 -1.765907 1.765906
											CHANNELS 3 Xrotation Yrotation Zrotation
											End Site
											{
												OFFSET -0.415260 3.926476 -0.049563
											}
										}
									}
								}
								JOINT LeftHandIndex1
								{
									OFFSET 11.334419 -0.901459 3.706815
									CHANNELS 3 Xrotation Yrotation Zrotation
									JOINT LeftHandIndex2
									{
										OFFSET 3.283112 0.000000 0.000000
										CHANNELS 3 Xrotation Yrotation Zrotation
										JOINT LeftHandIndex3
										{
											OFFSET 3.323853 0.000000 0.000000
											CHANNELS 3 Xrotation Yrotation Zrotation
											End Site
											{
												OFFSET -1.135597 3.097809 0.402452
											}
										}
									}
								}
								JOINT LeftHandMiddle1
								{
									OFFSET 11.335861 0.000000 0.000000
									CHANNELS 3 Xrotation Yrotation Zrotation
									JOINT LeftHandMiddle2
									{
										OFFSET 3.410492 0.000000 0.000000
										CHANNELS 3 Xrotation Yrotation Zrotation
										JOINT LeftHandMiddle3
										{
											OFFSET 3.312172 0.000000 0.000000
											CHANNELS 3 Xrotation Yrotation Zrotation
											End Site
											{
												OFFSET -1.150200 3.080154 0.400270
											}
										}
									}
								}
								JOINT LeftHandRing1
								{
									OFFSET 11.514786 -0.013176 -3.003090
									CHANNELS 3 Xrotation Yrotation Zrotation
									JOINT LeftHandRing2
									{
										OFFSET 3.053307 0.000000 0.000000
										CHANNELS 3 Xrotation Yrotation Zrotation
										JOINT LeftHandRing3
										{
											OFFSET 3.295807 0.000000 0.000000
											CHANNELS 3 Xrotation Yrotation Zrotation
											End Site
											{
												OFFSET -1.281006 3.013344 0.375733
											}
										}
									}
								}
								JOINT LeftHandPinky1
								{
									OFFSET 10.518692 -0.960396 -5.730441
									CHANNELS 3 Xrotation Yrotation Zrotation
									JOINT LeftHandPinky2
									{
										OFFSET 2.861649 0.000000 0.000000
										CHANNELS 3 Xrotation Yrotation Zrotation
										JOINT LeftHandPinky3
										{
											OFFSET 2.863380 0.000000 0.000000
											CHANNELS 3 Xrotation Yrotation Zrotation
											End Site
											{
												OFFSET -0.843597 2.711159 0.369971
											}
										}
									}
								}
							}
							JOINT LSleeve
							{
								OFFSET 6.676277 -0.344902 -1.011730
								CHANNELS 3 Xrotation Yrotation Zrotation
								End Site
								{
									OFFSET 0.000000 14.885353 0.000000
								}
							}
						}
					}
				}
				JOINT RightShoulder
				{
					OFFSET -6.197800 13.665199 -4.064700
					CHANNELS 3 Xrotation Yrotation Zrotation
					JOINT RightArm
					{
						OFFSET -7.778100 -0.187103 -1.709300
						CHANNELS 3 Xrotation Yrotation Zrotation
						JOINT RightForeArm
						{
							OFFSET -22.049376 0.000000 0.000000
							CHANNELS 3 Xrotation Yrotation Zrotation
							JOINT RightHand
							{
								OFFSET -23.009392 0.000000 0.000000
								CHANNELS 3 Xrotation Yrotation Zrotation
								JOINT RightHandThumb1
								{
									OFFSET -3.507191 -2.063065 3.133727
									CHANNELS 3 Xrotation Yrotation Zrotation
									JOINT RightHandThumb2
									{
										OFFSET -3.101337 -1.790558 1.790558
										CHANNELS 3 Xrotation Yrotation Zrotation
										JOINT RightHandThumb3
										{
											OFFSET -3.058640 -1.765907 1.765906
											CHANNELS 3 Xrotation Yrotation Zrotation
											End Site
											{
												OFFSET 0.415260 3.926476 -0.049563
											}
										}
									}
								}
								JOINT RightHandIndex1
								{
									OFFSET -11.334419 -0.901459 3.706815
									CHANNELS 3 Xrotation Yrotation Zrotation
									JOINT RightHandIndex2
									{
										OFFSET -3.283112 0.000000 0.000000
										CHANNELS 3 Xrotation Yrotation Zrotation
										JOINT RightHandIndex3
										{
											OFFSET -3.323853 0.000000 0.000000
											CHANNELS 3 Xrotation Yrotation Zrotation
											End Site
											{
												OFFSET 1.135597 3.097809 0.402452
											}
										}
									}
								}
								JOINT RightHandMiddle1
								{
									OFFSET -11.335861 0.000000 0.000000
									CHANNELS 3 Xrotation Yrotation Zrotation
									JOINT RightHandMiddle2
									{
										OFFSET -3.410492 0.000000 0.000000
										CHANNELS 3 Xrotation Yrotation Zrotation
										JOINT RightHandMiddle3
										{
											OFFSET -3.312172 0.000000 0.000000
											CHANNELS 3 Xrotation Yrotation Zrotation
											End Site
											{
												OFFSET 1.150200 3.080154 0.400270
											}
										}
									}
								}
								JOINT RightHandRing1
								{
									OFFSET -11.514786 -0.013176 -3.003090
									CHANNELS 3 Xrotation Yrotation Zrotation
									JOINT RightHandRing2
									{
										OFFSET -3.053307 0.000000 0.000000
										CHANNELS 3 Xrotation Yrotation Zrotation
										JOINT RightHandRing3
										{
											OFFSET -3.295807 0.000000 0.000000
											CHANNELS 3 Xrotation Yrotation Zrotation
											End Site
											{
												OFFSET 1.281006 3.013344 0.375733
											}
										}
									}
								}
								JOINT RightHandPinky1
								{
									OFFSET -10.518692 -0.960396 -5.730441
									CHANNELS 3 Xrotation Yrotation Zrotation
									JOINT RightHandPinky2
									{
										OFFSET -2.861649 0.000000 0.000000
										CHANNELS 3 Xrotation Yrotation Zrotation
										JOINT RightHandPinky3
										{
											OFFSET -2.863380 0.000000 0.000000
											CHANNELS 3 Xrotation Yrotation Zrotation
											End Site
											{
												OFFSET 0.843597 2.711159 0.369971
											}
										}
									}
								}
							}
							JOINT RSleeve
							{
								OFFSET -6.676277 -0.344902 -1.011730
								CHANNELS 3 Xrotation Yrotation Zrotation
								End Site
								{
									OFFSET 0.000000 14.885353 0.000000
								}
							}
						}
					}
				}
				JOINT Backpack
				{
					OFFSET 0.000000 -2.471497 36.677502
					CHANNELS 3 Xrotation Yrotation Zrotation
					End Site
					{
						OFFSET 0.000000 20.427315 0.000000
					}
				}
				JOINT Hood
				{
					OFFSET 0.000000 18.754097 -10.431000
					CHANNELS 3 Xrotation Yrotation Zrotation
					JOINT Hood1
					{
						OFFSET 0.000000 -5.011002 -7.685901
						CHANNELS 3 Xrotation Yrotation Zrotation
						End Site
						{
							OFFSET 0.000000 9.175140 0.000000
						}
					}
				}
				JOINT LHoodieString
				{
					OFFSET 5.250500 16.397697 3.089900
					CHANNELS 3 Xrotation Yrotation Zrotation
					JOINT LHoodieString1
					{
						OFFSET 0.257700 -6.364304 3.694600
						CHANNELS 3 Xrotation Yrotation Zrotation
						JOINT LHoodieString2
						{
							OFFSET 0.000000 -9.643799 2.679100
							CHANNELS 3 Xrotation Yrotation Zrotation
							End Site
							{
								OFFSET 0.000000 10.009018 0.000000
							}
						}
					}
				}
				JOINT RHoodieString
				{
					OFFSET -5.250500 16.397697 3.089900
					CHANNELS 3 Xrotation Yrotation Zrotation
					JOINT RHoodieString1
					{
						OFFSET -0.257700 -6.364304 3.694600
						CHANNELS 3 Xrotation Yrotation Zrotation
						JOINT RHoodieString2
						{
							OFFSET 0.000000 -9.643799 2.679100
							CHANNELS 3 Xrotation Yrotation Zrotation
							End Site
							{
								OFFSET 0.000000 10.009018 0.000000
							}
						}
					}
				}
			}
			JOINT LBackpack_Strap
			{
				OFFSET 15.223200 -7.719803 -6.610900
				CHANNELS 3 Xrotation Yrotation Zrotation
				End Site
				{
					OFFSET 0.000000 16.040596 0.000000
				}
			}
			JOINT RBackpack_Strap
			{
				OFFSET -15.223000 -7.719803 -6.610900
				CHANNELS 3 Xrotation Yrotation Zrotation
				End Site
				{
					OFFSET 0.000000 16.040596 0.000000
				}
			}
		}
	}
	JOINT BoyFacialAnim_Joint
	{
		OFFSET 1.000000 -82.208099 -1.550900
		CHANNELS 3 Xrotation Yrotation Zrotation
		End Site
		{
			OFFSET 0.000000 30.012791 0.000000
		}
	}
}
MOTION
Frames: 4
Frame Time: 0.033333
0.147175 68.669609 306.604980 369.207569 -1.214733 1.919497 -0.000000 -0.000000 -0.000000 -59.384513 -4.236284 9.054266 66.860633 -8.213086 -2.216206 -13.599465 0.669192 -4.672952 -0.000000 0.000000 -0.000000 -0.000000 0.000000 -0.000000 0.000002 -0.000000 0.000000 -66.733632 1.436632 -0.202722 50.751109 4.873714 2.904437 5.443765 -0.292529 -5.552228 -0.000000 -0.000000 -0.000000 -0.000000 -0.000000 -0.000000 0.000000 0.000000 0.000000 3.953017 0.096209 -0.119413 7.906567 0.160237 -0.404783 7.906570 0.160237 -0.404782 -3.740189 5.640697 -5.576232 -4.871265 1.121355 2.759126 -0.000001 0.000000 0.000000 -0.000001 0.000000 0.000000 -0.000001 0.000000 0.000000 0.492510 -8.717373 -14.741117 -10.958910 -6.892640 -48.326450 8.124216 -72.509561 -12.896282 6.895710 -17.093283 29.544277 -5.517046 -9.736457 -4.019962 14.628401 4.383471 1.121034 -0.000004 -0.000001 0.000001 -5.547417 -7.397892 -47.867151 -3.368236 -3.217038 -61.502213 0.000000 -0.000001 -0.000000 -2.160858 -2.559779 -51.545880 -2.784375 -4.261497 -55.222926 -0.000000 -0.000001 -0.000002 1.527299 6.956552 -61.126607 -1.615397 -3.855994 -57.573563 -0.000000 -0.000001 -0.000002 5.358960 14.280530 -64.741376 -1.065178 -6.258508 -67.472898 0.000002 0.000000 0.000001 0.000002 0.000001 0.000003 0.577764 4.129446 12.435870 -2.765954 -7.405081 55.385143 15.246862 61.949283 4.496376 10.987345 8.817852 -8.094790 -4.913601 2.115198 7.618021 16.080299 3.981543 -9.737206 0.000002 -0.000004 0.000006 -3.457556 4.905140 44.884725 -2.696799 2.093054 61.234852 -0.000001 0.000003 0.000002 -1.537418 0.552674 49.674641 -2.257626 3.267976 54.970452 0.000003 -0.000000 -0.000000 0.413878 -4.794665 56.960386 -2.236350 4.982270 57.145030 -0.000004 -0.000000 0.000004 2.484062 -9.373279 63.384661 -3.013503 9.208924 67.009278 0.000000 0.000001 -0.000003 -0.000001 -0.000003 0.000001 0.000001 -0.000000 -0.000000 0.000001 -0.000000 -0.000000 0.000001 -0.000000 -0.000000 0.000001 -0.000000 -0.000000 0.000001 -0.000000 -0.000000 0.000001 0.000000 -0.000000 0.000001 -0.000000 -0.000000 0.000001 -0.000000 -0.000000 0.000001 0.000000 -0.000000 0.000001 0.000000 0.000000 0.000001 0.000000 0.000000 -0.000000 -0.000000 -0.000000 
0.309262 71.471474 317.913391 366.883393 -0.619027 -0.616116 -0.000001 0.000000 -0.000000 -55.322032 -5.432566 9.522488 76.616677 -2.556975 -6.992600 5.413096 -3.507910 2.747970 -0.000002 0.000000 0.000000 -0.000002 0.000000 0.000000 -0.000001 0.000001 -0.000000 -57.183174 3.712433 2.718916 57.843738 -1.772557 2.022126 -5.119295 0.378480 -3.199026 -0.000000 -0.000000 0.000000 -0.000000 -0.000000 0.000000 -0.000001 -0.000000 0.000000 4.313703 0.777238 0.844491 8.640649 1.073731 0.365285 8.640655 1.073731 0.365285 -7.413508 2.295861 -4.323131 -13.892302 -1.460363 -1.773955 0.000000 -0.000000 -0.000000 0.000000 -0.000000 -0.000000 0.000000 -0.000000 -0.000000 0.826519 -6.108813 -13.325474 1.941780 2.260313 -58.658033 38.117114 -83.783383 21.538380 10.477252 -17.296742 19.606254 -4.601069 -8.430292 -5.392273 9.899679 9.309140 1.652387 -0.000002 -0.000000 -0.000001 -5.256500 -6.094369 -63.446372 -4.759919 -3.832281 -74.350140 0.000001 -0.000001 -0.000000 -3.443568 -3.342422 -67.003486 -3.951639 -4.960627 -68.096849 0.000002 -0.000001 0.000004 -0.970412 5.281002 -73.927031 -2.357403 -4.175618 -70.650527 -0.000002 -0.000002 0.000005 1.184754 11.666017 -78.609542 -1.392873 -6.290481 -80.356984 -0.000001 -0.000001 0.000003 -0.000002 0.000001 0.000001 0.647231 5.213991 10.953778 3.356434 -10.981033 54.436396 8.392122 74.062234 7.060424 6.809435 6.766667 -4.126857 -1.782315 2.254441 7.392472 9.888288 -3.583082 -5.369508 -0.000005 0.000001 -0.000002 -0.275566 3.076671 59.299231 -4.121835 2.687707 77.143360 0.000002 0.000000 0.000002 -1.797919 1.319669 64.324194 -3.453808 3.962594 70.909433 0.000000 0.000001 -0.000004 -1.486154 -3.613574 71.657434 -3.531091 5.531996 73.350795 0.000002 -0.000003 -0.000000 -0.761880 -7.880822 81.285890 -4.263773 9.464563 83.086273 0.000001 -0.000002 -0.000000 0.000000 -0.000000 0.000000 0.000001 -0.000000 -0.000000 0.000001 -0.000000 -0.000000 0.000001 -0.000000 -0.000000 0.000001 -0.000000 -0.000000 0.000001 -0.000000 -0.000000 0.000001 -0.000000 0.000000 0.000001 -0.000000 -0.000000 0.000001 -0.000000 -0.000000 0.000001 -0.000000 0.000000 -0.000001 0.000000 -0.000000 -0.000001 0.000000 -0.000000 -0.000001 0.000000 -0.000000 
0.322396 73.387398 330.820312 364.582411 0.338326 -3.066650 -0.000000 0.000000 -0.000000 -53.382829 -3.409194 7.254992 96.753168 6.226262 -7.935741 1.581338 -5.005479 10.413840 0.000002 -0.000000 -0.000000 0.000002 -0.000000 -0.000000 -0.000001 -0.000001 0.000000 -43.562123 -0.669726 2.896672 60.950860 -2.093866 1.856354 -14.727643 0.471359 -1.340763 0.000000 -0.000000 0.000000 0.000000 -0.000000 0.000000 -0.000002 0.000000 0.000000 4.648539 1.180523 1.779525 9.332469 1.994806 1.137922 9.332469 1.994804 1.137923 -7.608534 -1.133921 -2.139822 -15.490227 -4.649524 -4.957602 0.000000 -0.000000 0.000000 0.000000 -0.000000 0.000000 0.000000 -0.000000 0.000000 1.059708 -2.952757 -10.626242 15.368317 11.131106 -67.373041 -0.224329 -95.844998 -13.024791 12.783233 -18.782083 10.046758 -3.908020 -7.424856 -6.353690 6.442959 12.718790 2.394599 -0.000000 -0.000004 -0.000001 -4.724142 -5.515623 -74.680544 -5.797176 -4.130606 -83.421888 -0.000000 0.000000 -0.000002 -4.478477 -3.687522 -78.177601 -4.851020 -5.303092 -77.193343 0.000004 -0.000001 -0.000002 -2.989454 4.609248 -82.973357 -2.912804 -4.284696 -79.880743 0.000001 0.000000 -0.000000 -2.172902 10.833170 -88.420569 -1.630479 -6.226124 -89.445418 -0.000000 -0.000003 -0.000002 0.000000 -0.000004 0.000000 0.746218 5.896624 9.554013 6.395279 -11.674859 54.945528 -19.928820 84.190551 28.978730 2.184678 5.921529 -0.191183 0.493483 2.320791 7.260273 5.604202 -9.304591 -3.006003 -0.000002 0.000004 -0.000003 2.476981 2.726908 69.699021 -5.230978 2.951760 88.631909 -0.000001 -0.000003 0.000005 -2.072280 1.874562 74.902846 -4.423744 4.270071 82.429134 0.000002 0.000003 0.000002 -3.030845 -3.162824 82.277190 -4.530899 5.675157 85.062131 -0.000000 -0.000004 -0.000000 -3.320458 -7.690972 94.216490 -5.168547 9.366426 94.692301 0.000001 -0.000002 -0.000000 0.000000 -0.000000 -0.000001 0.000000 -0.000000 -0.000000 0.000000 -0.000000 -0.000000 0.000000 -0.000000 -0.000000 0.000000 -0.000000 -0.000000 0.000000 -0.000000 0.000000 0.000000 0.000000 -0.000000 0.000000 -0.000000 -0.000000 0.000000 -0.000000 0.000000 0.000000 0.000000 -0.000000 -0.000002 -0.000000 -0.000000 -0.000002 -0.000000 -0.000000 -0.000000 0.000000 -0.000000 
0.153019 75.631317 345.833344 363.439393 1.455635 -4.674972 -0.000000 -0.000000 -0.000000 -45.366902 5.518369 -0.705761 99.193410 13.511164 3.912599 -8.428058 -0.897576 6.602452 -0.000000 -0.000000 -0.000001 -0.000000 -0.000000 -0.000001 -0.000000 -0.000001 -0.000001 -21.309765 -5.984287 4.636449 50.383372 0.126858 -1.583345 -24.692210 0.138453 -0.424429 0.000001 -0.000000 0.000000 0.000001 -0.000000 0.000000 -0.000002 0.000000 -0.000000 4.908442 1.320677 2.170456 9.857107 2.800288 1.725491 9.857107 2.800286 1.725490 -7.496550 -3.144976 -0.434785 -14.101443 -7.360282 -5.253896 0.000000 0.000000 0.000000 0.000000 0.000000 0.000000 0.000000 0.000000 0.000000 1.084084 -1.226542 -9.108715 21.951215 16.129927 -69.744592 5.201871 -103.989910 -6.123399 11.822912 -20.243265 2.841623 -3.691998 -7.086378 -6.633116 5.370490 13.667850 2.734564 0.000000 0.000001 -0.000002 -4.473762 -5.484330 -78.092059 -6.119677 -4.169208 -86.100764 0.000001 0.000002 -0.000003 -4.806062 -3.745983 -81.576767 -5.132320 -5.371461 -79.877689 0.000001 0.000000 0.000002 -3.655250 4.571968 -85.638858 -3.077653 -4.303984 -82.603024 -0.000000 0.000000 -0.000004 -3.272623 10.937596 -91.302718 -1.692362 -6.213476 -92.125858 0.000000 0.000002 -0.000002 -0.000001 0.000001 0.000001 0.776484 6.054096 9.529811 5.506734 -10.523615 55.529288 -70.896961 86.710433 75.614046 -0.541023 5.793794 2.436063 1.190159 2.334181 7.237147 4.247138 -11.103171 -2.569443 0.000003 -0.000003 0.000004 3.425663 2.971989 72.846959 -5.580369 2.947705 92.129696 -0.000001 -0.000001 0.000002 -2.180954 2.046345 78.118800 -4.732762 4.314229 85.933178 0.000002 -0.000000 0.000003 -3.529966 -3.131007 85.505376 -4.836673 5.681248 88.623405 -0.000000 0.000001 0.000000 -4.108830 -7.839765 98.143282 -5.436830 9.326585 98.221590 0.000002 0.000004 0.000003 0.000001 -0.000002 -0.000000 0.000001 -0.000000 0.000000 0.000001 -0.000000 0.000000 0.000001 -0.000000 0.000000 0.000001 -0.000000 0.000000 0.000001 -0.000000 -0.000000 0.000003 0.000000 0.000000 0.000001 -0.000000 0.000000 0.000001 -0.000000 -0.000000 0.000003 0.000000 0.000000 -0.000000 0.000000 -0.000000 -0.000000 0.000000 -0.000000 -0.000000 -0.000000 -0.000000 
